<svg xmlns="http://www.w3.org/2000/svg" viewBox="0 0 120 120" fill="none" shape-rendering="auto"><metadata xmlns:rdf="http://www.w3.org/1999/02/22-rdf-syntax-ns#" xmlns:xsi="http://www.w3.org/2001/XMLSchema-instance" xmlns:dc="http://purl.org/dc/elements/1.1/" xmlns:dcterms="http://purl.org/dc/terms/"><rdf:RDF><rdf:Description><dc:title>Bottts</dc:title><dc:creator>Pablo Stanley</dc:creator><dc:source xsi:type="dcterms:URI">https://bottts.com/</dc:source><dcterms:license xsi:type="dcterms:URI">https://bottts.com/</dcterms:license><dc:rights>Remix of „Bottts” (https://bottts.com/) by „Pablo Stanley”, licensed under „Free for personal and commercial use” (https://bottts.com/)</dc:rights></rdf:Description></rdf:RDF></metadata><mask id="viewboxMask"><rect width="120" height="120" rx="0" ry="0" x="0" y="0" fill="#fff" /></mask><g mask="url(#viewboxMask)"><rect fill="#fdd835" width="120" height="120" x="0" y="0" /><g transform="translate(22 68)"><rect x="4" y="5" width="68" height="22" rx="5" fill="#000" fill-opacity=".2"/><rect x="8" y="9" width="60" height="14" rx="2" fill="#000" fill-opacity=".6"/><path fill-rule="evenodd" clip-rule="evenodd" d="m20 17 6-8H14l6 8ZM32 17l6-8H26l6 8ZM44 17l6-8H38l6 8ZM56 17l6-8H50l6 8Z" fill="#E1E6E8"/></g><g transform="translate(8 20)"><rect x="7" y="16" width="91" height="16" rx="4" fill="#000" fill-opacity=".8"/><mask id="eyesRobocop-a" style="mask-type:luminance" maskUnits="userSpaceOnUse" x="7" y="16" width="91" height="16"><rect x="7" y="16" width="91" height="16" rx="4" fill="#fff"/></mask><g mask="url(#eyesRobocop-a)" fill-rule="evenodd" clip-rule="evenodd" fill="#fff" fill-opacity=".8"><path d="M76 7h18L82 37H64L76 7ZM52 7h9L49 37h-9L52 7Z"/></g></g></g></svg>