<svg xmlns="http://www.w3.org/2000/svg" viewBox="0 0 200 200" fill="none" shape-rendering="auto"><metadata xmlns:rdf="http://www.w3.org/1999/02/22-rdf-syntax-ns#" xmlns:xsi="http://www.w3.org/2001/XMLSchema-instance" xmlns:dc="http://purl.org/dc/elements/1.1/" xmlns:dcterms="http://purl.org/dc/terms/"><rdf:RDF><rdf:Description><dc:title>Fun Emoji Set</dc:title><dc:creator>Davis Uche</dc:creator><dc:source xsi:type="dcterms:URI">https://www.figma.com/community/file/968125295144990435</dc:source><dcterms:license xsi:type="dcterms:URI">https://creativecommons.org/licenses/by/4.0/</dcterms:license><dc:rights>Remix of „Fun Emoji Set” (https://www.figma.com/community/file/968125295144990435) by „Davis Uche”, licensed under „CC BY 4.0” (https://creativecommons.org/licenses/by/4.0/)</dc:rights></rdf:Description></rdf:RDF></metadata><mask id="viewboxMask"><rect width="200" height="200" rx="0" ry="0" x="0" y="0" fill="#fff" /></mask><g mask="url(#viewboxMask)"><rect fill="#059ff2" width="200" height="200" x="0" y="0" /><g transform="matrix(1.5625 0 0 1.5625 37.5 110.94)"><path fill-rule="evenodd" clip-rule="evenodd" d="M76 1v.49a35.13 35.13 0 0 1-.9 7.75 30.24 30.24 0 0 1-14.24 19.24C48.32 36 30.66 35.84 18.37 28A30.01 30.01 0 0 1 4.8 8.66 36.4 36.4 0 0 1 4 1c22.86 8.83 46.05 8.83 69.54.9L76 1Z" fill="#2B1607" stroke="#000" stroke-width="1.48" stroke-linecap="round" stroke-linejoin="round"/><path fill-rule="evenodd" clip-rule="evenodd" d="M76 1.48a33.97 33.97 0 0 1-.9 7.62C54.26 22.59 25.62 22.2 4.8 8.53 4.25 6.06 4 3.53 4 1c22.85 8.67 46.03 8.67 69.51.88l2.49-.4ZM62 28.49c-12.99 7.5-31.29 7.34-44-.49a134.2 134.2 0 0 0 44 .49Z" fill="#fff"/><path fill-rule="evenodd" clip-rule="evenodd" d="M76.57.19c.27.19.43.5.43.83 0 11.3-4.64 19.83-11.62 25.51C58.42 32.2 49.18 35 40 35c-9.19 0-18.42-2.8-25.38-8.47C7.64 20.85 3 12.33 3 1.03A1.03 1.03 0 0 1 4.38.06c23.45 9.02 47.14 8.78 71.25 0 .32-.12.66-.08.94.12ZM5.07 2.5C5.45 12.44 9.7 19.9 15.9 24.94c6.54 5.32 15.3 8.01 24.1 8.01s17.56-2.69 24.1-8c6.2-5.06 10.45-12.53 10.83-22.46C51.36 10.77 28.1 11 5.07 2.5Z" fill="#000"/><path d="M24.01 36.05c4.5 5.16 25.03 5.5 30 0a68.03 68.03 0 0 1-30 0Z" fill="#000" style="mix-blend-mode:soft-light" opacity=".4"/></g><g transform="matrix(1.5625 0 0 1.5625 31.25 59.38)"><path d="M74.38 30a13 13 0 0 0 13-13v-.66C87.38 5.9 75.83-.87 68.45.1c-6.54.84-7.07 5.02-7.07 11.24V17a13.01 13.01 0 0 0 13 13Z" fill="#000"/><path d="M70.2 9.67a2.29 2.29 0 1 0 0-4.58 2.29 2.29 0 0 0 0 4.58Z" fill="#fff"/><path opacity=".1" d="M74.44 18.48a5.32 5.32 0 1 0 0-10.64 5.32 5.32 0 0 0 0 10.64Z" fill="#fff"/><path d="M13.37 30a13.01 13.01 0 0 1-13-13v-.66C.38 5.9 11.93-.87 19.32.1c6.56.84 7.07 5.02 7.07 11.24V17a13 13 0 0 1-13 13Z" fill="#000"/><path d="M9.22 9.67a2.29 2.29 0 1 0 0-4.58 2.29 2.29 0 0 0 0 4.58Z" fill="#fff"/><path opacity=".1" d="M13.46 18.48a5.32 5.32 0 1 0 0-10.64 5.32 5.32 0 0 0 0 10.64Z" fill="#fff"/></g></g></svg>